<svg width="14" height="12" viewBox="0 0 14 12" fill="none" xmlns="http://www.w3.org/2000/svg">
<path d="M0.414531 6.39804L5.47703 11.4605C5.58258 11.5661 5.72573 11.6254 5.875 11.6254C6.02427 11.6254 6.16742 11.5661 6.27297 11.4605C6.37852 11.355 6.43781 11.2118 6.43781 11.0626C6.43781 10.9133 6.37852 10.7701 6.27297 10.6646L2.17023 6.56257H13.1875C13.3367 6.56257 13.4798 6.50331 13.5852 6.39782C13.6907 6.29233 13.75 6.14925 13.75 6.00007C13.75 5.85088 13.6907 5.70781 13.5852 5.60232C13.4798 5.49683 13.3367 5.43757 13.1875 5.43757H2.17023L6.27297 1.33554C6.37852 1.22999 6.43781 1.08684 6.43781 0.937569C6.43781 0.788301 6.37852 0.645148 6.27297 0.5396C6.16742 0.434052 6.02427 0.374756 5.875 0.374756C5.72573 0.374756 5.58258 0.434052 5.47703 0.5396L0.414531 5.6021C0.362232 5.65434 0.320742 5.71638 0.292435 5.78466C0.264127 5.85295 0.249558 5.92615 0.249558 6.00007C0.249558 6.07399 0.264127 6.14719 0.292435 6.21547C0.320742 6.28376 0.362232 6.3458 0.414531 6.39804Z" fill="black"/>
</svg>
