<svg width="18" height="18" viewBox="0 0 18 18" fill="none" xmlns="http://www.w3.org/2000/svg">
<path d="M2.41453 9.39804L7.47703 14.4605C7.58258 14.5661 7.72573 14.6254 7.875 14.6254C8.02427 14.6254 8.16742 14.5661 8.27297 14.4605C8.37852 14.355 8.43781 14.2118 8.43781 14.0626C8.43781 13.9133 8.37852 13.7701 8.27297 13.6646L4.17023 9.56257H15.1875C15.3367 9.56257 15.4798 9.50331 15.5852 9.39782C15.6907 9.29233 15.75 9.14925 15.75 9.00007C15.75 8.85088 15.6907 8.70781 15.5852 8.60232C15.4798 8.49683 15.3367 8.43757 15.1875 8.43757H4.17023L8.27297 4.33554C8.37852 4.22999 8.43781 4.08684 8.43781 3.93757C8.43781 3.7883 8.37852 3.64515 8.27297 3.5396C8.16742 3.43405 8.02427 3.37476 7.875 3.37476C7.72573 3.37476 7.58258 3.43405 7.47703 3.5396L2.41453 8.6021C2.36223 8.65434 2.32074 8.71638 2.29243 8.78466C2.26413 8.85295 2.24956 8.92615 2.24956 9.00007C2.24956 9.07399 2.26413 9.14719 2.29243 9.21547C2.32074 9.28376 2.36223 9.3458 2.41453 9.39804Z" fill="#2C2C2E"/>
</svg>
