<svg width="100" height="92" viewBox="0 0 100 92" fill="none" xmlns="http://www.w3.org/2000/svg">
<path d="M44.5312 33.5H1.5625C0.625 33.5 0 32.7188 0 31.9375V21.9375C0 17.5625 3.59375 13.8125 8.125 13.8125H49.8438C50.7812 13.8125 51.4063 14.5938 51.4063 15.375C51.4063 16.1562 50.625 16.9375 49.8438 16.9375H7.96875C5.3125 16.9375 3.125 19.125 3.125 21.7813V30.2188H44.5312C45.4688 30.2188 46.0938 31 46.0938 31.7812C46.0938 32.5625 45.4688 33.5 44.5312 33.5Z" fill="#073E57"/>
<path d="M7.96875 91.3125C5.78125 91.3125 3.75 90.5312 2.34375 88.9687C0.78125 87.4062 0 85.375 0 83.1875V31.7812C0 30.8437 0.78125 30.2188 1.5625 30.2188H44.5312C45.4688 30.2188 46.0938 31 46.0938 31.7812C46.0938 32.5625 45.3125 33.3438 44.5312 33.3438H3.125V83.0313C3.125 84.2813 3.59375 85.5312 4.53125 86.4688C5.46875 87.4062 6.71875 87.875 7.96875 87.875H81.25C83.9062 87.875 86.0938 85.6875 86.0938 83.0313V51.7813C86.0938 50.8438 86.875 50.2188 87.6562 50.2188C88.4375 50.2188 89.2188 51 89.2188 51.7813V83.0313C89.2188 87.4063 85.625 91.1562 81.0938 91.1562H7.96875V91.3125Z" fill="#073E57"/>
<path d="M14.0625 25.2188H10.625C9.6875 25.2188 9.0625 24.4375 9.0625 23.6562C9.0625 22.875 9.84375 22.0938 10.625 22.0938H14.0625C15 22.0938 15.625 22.875 15.625 23.6562C15.625 24.4375 15 25.2188 14.0625 25.2188Z" fill="#073E57"/>
<path d="M21.7187 25.2188H18.2812C17.3437 25.2188 16.7188 24.4375 16.7188 23.6562C16.7188 22.875 17.5 22.0938 18.2812 22.0938H21.7187C22.6562 22.0938 23.2812 22.875 23.2812 23.6562C23.2812 24.4375 22.6562 25.2188 21.7187 25.2188Z" fill="#073E57"/>
<path d="M29.375 25.2188H25.9375C25 25.2188 24.375 24.4375 24.375 23.6562C24.375 22.875 25.1562 22.0938 25.9375 22.0938H29.375C30.3125 22.0938 30.9375 22.875 30.9375 23.6562C30.9375 24.4375 30.3125 25.2188 29.375 25.2188Z" fill="#073E57"/>
<path d="M38.4375 61.7812H15.625C12.9687 61.7812 10.7812 59.5937 10.7812 56.9375V43.3437C10.7812 40.6875 12.9687 38.5 15.625 38.5H38.4375C41.0937 38.5 43.2812 40.6875 43.2812 43.3437V56.9375C43.2812 59.5937 41.0937 61.7812 38.4375 61.7812ZM38.4375 41.625H15.625C14.6875 41.625 14.0625 42.4062 14.0625 43.1875V56.9375C14.0625 57.875 14.8437 58.5 15.625 58.5H38.4375C39.375 58.5 40 57.7187 40 56.9375V43.3437C40 42.4062 39.2187 41.625 38.4375 41.625Z" fill="#073E57"/>
<path d="M54.8437 52.0938H53.125C52.1875 52.0938 51.5625 51.3125 51.5625 50.5312C51.5625 49.75 52.3438 48.9688 53.125 48.9688H54.8437C55.7812 48.9688 56.4062 49.75 56.4062 50.5312C56.4062 51.3125 55.625 52.0938 54.8437 52.0938Z" fill="#073E57"/>
<path d="M77.8125 62.4062H53.125C52.1875 62.4062 51.5625 61.625 51.5625 60.8438C51.5625 60.0625 52.3438 59.2812 53.125 59.2812H77.8125C78.75 59.2812 79.375 60.0625 79.375 60.8438C79.375 61.625 78.5937 62.4062 77.8125 62.4062Z" fill="#073E57"/>
<path d="M77.8125 72.7188H11.5625C10.625 72.7188 10 71.9375 10 71.1562C10 70.375 10.7813 69.5938 11.5625 69.5938H77.8125C78.75 69.5938 79.375 70.375 79.375 71.1562C79.375 71.9375 78.5938 72.7188 77.8125 72.7188Z" fill="#073E57"/>
<path d="M77.8125 83.0312H11.5625C10.625 83.0312 10 82.25 10 81.4688C10 80.6875 10.7813 79.9062 11.5625 79.9062H77.8125C78.75 79.9062 79.375 80.6875 79.375 81.4688C79.375 82.25 78.5938 83.0312 77.8125 83.0312Z" fill="#073E57"/>
<path d="M75.625 52.7188H73.125C71.0937 52.7188 69.375 51.1562 69.0625 49.2812L68.4375 45.375C68.4375 45.0625 68.125 44.9062 67.9688 44.75C67.3438 44.5938 66.875 44.2812 66.25 44.125C65.9375 43.9688 65.7813 43.9688 65.4688 44.125L62.3438 46.4688C60.7813 47.5625 58.4375 47.4062 57.0312 46L55.1562 44.125C53.75 42.7188 53.5938 40.5312 54.6875 38.8125L57.0312 35.6875C57.1875 35.375 57.1875 35.0625 57.0312 34.9062C56.7188 34.4375 56.5625 33.8125 56.25 33.1875C56.0938 32.875 55.9375 32.7188 55.625 32.7188L51.875 32.0938C49.8438 31.7812 48.4375 30.0625 48.4375 28.0312V25.375C48.4375 23.3437 49.8438 21.625 51.875 21.3125L55.625 20.6875C55.9375 20.6875 56.0938 20.375 56.25 20.2188C56.4062 19.5938 56.7188 19.125 57.0312 18.5C57.1875 18.1875 57.1875 17.875 57.0312 17.7188L54.6875 14.5937C53.4375 13.0312 53.75 10.8438 55 9.28125L56.875 7.40625C58.2813 6 60.625 5.84375 62.1875 7.09375L65.1563 9.4375C65.4688 9.75 65.7813 9.59375 65.9375 9.4375C66.5625 9.125 67.0312 8.96875 67.6562 8.65625C67.9687 8.5 68.125 8.34375 68.2813 8.03125L68.9062 4.125C69.375 2.25 71.0937 0.6875 73.125 0.6875H75.625C77.6563 0.6875 79.375 2.25 79.6875 4.125L80.3125 8.03125C80.3125 8.34375 80.625 8.5 80.7812 8.65625C81.4062 8.8125 81.875 9.125 82.5 9.28125C82.8125 9.4375 82.9688 9.4375 83.2812 9.28125L86.4062 6.9375C87.9688 5.6875 90.3125 6 91.7188 7.40625L93.5938 9.28125C95 10.6875 95.1562 12.875 94.0625 14.5937L91.7188 17.7188C91.5625 18.0312 91.5625 18.3438 91.7188 18.5C92.0312 18.9688 92.1875 19.5938 92.5 20.2188C92.6562 20.5312 92.8125 20.6875 93.125 20.6875L96.875 21.3125C98.9062 21.625 100.312 23.3437 100.312 25.375V28.0312C100.312 30.0625 98.9062 31.7812 96.875 32.0938L93.125 32.7188C92.8125 32.7188 92.6562 33.0312 92.5 33.1875C92.3438 33.8125 92.0312 34.2812 91.875 34.9062C91.7188 35.2188 91.7188 35.5312 91.875 35.8438L94.2188 38.9688C95.3125 40.5312 95.1562 42.7188 93.9062 44.2812L91.5625 46C90.1562 47.4062 87.8125 47.5625 86.25 46.3125L83.2812 43.9688C82.9688 43.6562 82.6562 43.8125 82.5 43.9688C81.875 44.2812 81.4062 44.4375 80.7812 44.75C80.4688 44.9062 80.3125 45.0625 80.3125 45.375L79.6875 49.2812C79.375 51.1562 77.6563 52.7188 75.625 52.7188ZM65.7812 40.6875C66.4062 40.6875 67.0313 40.8438 67.5 41.1562C67.9688 41.3125 68.4375 41.625 68.9062 41.7812C70.3125 42.25 71.25 43.5 71.5625 44.9062L72.1875 48.8125C72.1875 49.2812 72.6563 49.5938 72.9688 49.5938H75.4687C75.9375 49.5938 76.25 49.2813 76.25 48.9688L76.875 45.0625C77.0313 43.6562 78.125 42.4062 79.5313 41.9375C80 41.7812 80.4688 41.625 80.9375 41.3125C82.1875 40.6875 83.9062 40.8438 85.1562 41.7812L88.2812 44.125C88.75 44.4375 89.0625 44.2812 89.375 43.9688L91.25 42.0938C91.5625 41.7812 91.5625 41.3125 91.25 41L88.9063 37.875C87.9688 36.625 87.8125 35.0625 88.4375 33.8125C88.5937 33.3438 88.9062 32.875 89.0625 32.4062C89.5312 31 90.7812 29.9062 92.1875 29.75L95.9375 29.125C96.4063 29.125 96.5625 28.6563 96.5625 28.3438V25.6875C96.5625 25.2188 96.25 24.9062 95.9375 24.9062L92.1875 24.2812C90.7812 24.125 89.5312 23.0312 89.0625 21.625C88.9062 21.1562 88.75 20.6875 88.4375 20.2188C87.8125 18.8125 87.9688 17.25 88.75 16L91.0938 12.875C91.4062 12.5625 91.25 12.0938 91.0938 11.7813L89.2187 9.90625C89.0625 9.75 88.75 9.59375 88.5938 9.59375C88.4375 9.59375 88.2813 9.59375 88.125 9.75L85.1562 12.0938C84.0625 13.0312 82.3438 13.1875 80.9375 12.5625C80.4688 12.4063 80 12.0938 79.5313 11.9375C78.125 11.4688 77.1875 10.2188 76.875 8.8125L76.25 4.90625C76.25 4.4375 75.7812 4.125 75.4687 4.125H72.9688C72.5 4.125 72.1875 4.4375 72.1875 4.75L71.7188 8.5C71.5625 9.90625 70.4688 11.1562 69.0625 11.625C68.5938 11.7812 68.125 11.9375 67.6562 12.25C66.4062 12.875 64.6875 12.7188 63.4375 11.7813L60.3125 9.4375C59.8437 8.96875 59.5313 9.28125 59.2188 9.59375L57.3438 11.4687C57.0313 11.7812 57.0313 12.25 57.3438 12.5625L59.6875 15.6875C60.4688 16.9375 60.625 18.5 60 19.75C59.8438 20.2188 59.5312 20.6875 59.375 21.1562C58.9062 22.5625 57.6562 23.6562 56.25 23.8125L52.5 24.4375C52.0312 24.4375 51.875 24.9063 51.875 25.2188V27.875C51.875 28.3438 52.1875 28.6562 52.5 28.6562L56.25 29.2812C57.6562 29.4375 58.9062 30.5312 59.375 31.9375C59.5312 32.4062 59.6875 32.875 60 33.3438C60.625 34.75 60.4687 36.3125 59.5312 37.5625L57.1875 40.6875C56.875 41 57.0312 41.4688 57.1875 41.7812L59.0625 43.6562C59.375 43.9688 59.6875 44.125 60.1562 43.8125L63.2812 41.4688C64.0625 41 65 40.6875 65.7812 40.6875Z" fill="#073E57"/>
<path d="M74.375 37.0938C68.5937 37.0938 63.9062 32.4063 63.9062 26.625C63.9062 20.8438 68.5937 16.1562 74.375 16.1562C80.1562 16.1562 84.8437 20.8438 84.8437 26.625C84.8437 32.4063 80.1562 37.0938 74.375 37.0938ZM74.375 19.4375C70.3125 19.4375 67.1875 22.7188 67.1875 26.625C67.1875 30.6875 70.4687 33.8125 74.375 33.8125C78.2812 33.8125 81.5625 30.5313 81.5625 26.625C81.5625 22.7188 78.2812 19.4375 74.375 19.4375Z" fill="#073E57"/>
</svg>
