<svg width="100" height="98" viewBox="0 0 100 98" fill="none" xmlns="http://www.w3.org/2000/svg">
<path d="M94.6268 59.011C95.6777 58.0544 96.3129 56.686 96.3129 55.1927V42.8073C96.3129 39.9542 93.9941 37.6329 91.1441 37.6329H87.9912C87.1213 34.5835 85.9031 31.6448 84.3584 28.8706L86.5881 26.6407C87.5648 25.664 88.1021 24.3624 88.101 22.9763C88.0996 21.5929 87.5617 20.2958 86.5881 19.3261L77.8314 10.5692C76.8584 9.59248 75.5588 9.05439 74.1723 9.05439C72.7855 9.05439 71.4859 9.59248 70.5148 10.5673L68.2852 12.797C65.5111 11.2524 62.5727 10.0341 59.5232 9.16397V6.01104C59.5232 3.16104 57.2021 0.842285 54.349 0.842285H41.9641C39.1109 0.842285 36.7898 3.16104 36.7898 6.01104V9.16397C33.7404 10.0339 30.802 11.2522 28.0277 12.797L25.7982 10.5673C24.8213 9.59033 23.5191 9.06221 22.1338 9.05439C20.7504 9.05576 19.4533 9.59365 18.4836 10.5673L9.72676 19.3241C8.75117 20.296 8.21328 21.5929 8.21191 22.9765C8.21055 24.3626 8.74785 25.664 9.7248 26.6409L11.9545 28.8708C10.41 31.6448 9.1916 34.5833 8.32168 37.6331H5.16875C2.31875 37.6329 0 39.9542 0 42.8071V55.1925C0 58.0456 2.31875 60.3669 5.16875 60.3669H8.32168C9.1916 63.4167 10.41 66.3552 11.9545 69.1292L9.72676 71.3569C8.75 72.33 8.21191 73.6296 8.21191 75.0163C8.21191 76.403 8.7498 77.7024 9.7248 78.6737L18.4814 87.4306C19.4531 88.4062 20.7502 88.9442 22.1336 88.9454C23.5113 88.9423 24.8211 88.4095 25.798 87.4325L28.0277 85.2028C30.8018 86.7474 33.7402 87.9657 36.7896 88.8358V91.9888C36.7896 94.8388 39.1107 97.1575 41.9639 97.1575H54.3488C57.202 97.1575 59.523 94.8388 59.523 91.9888V88.8351C61.491 88.2724 63.4203 87.5614 65.2836 86.7155C68.958 90.5259 74.1121 92.8999 79.8107 92.8999C83.1189 92.8999 86.4035 92.0802 89.309 90.5294C90.0227 90.1483 90.2924 89.261 89.9115 88.5474C89.5305 87.8335 88.6428 87.5642 87.9295 87.9448C85.4471 89.27 82.6396 89.9704 79.8107 89.9704C70.2939 89.9704 62.5514 82.2276 62.5514 72.7104C62.5514 63.1933 70.2939 55.4505 79.8107 55.4505C89.3277 55.4505 97.0701 63.1933 97.0701 72.7104C97.0701 76.9419 95.5186 81.0161 92.7014 84.1831C92.1637 84.7876 92.2178 85.7134 92.8223 86.2511C93.4266 86.7888 94.3523 86.7349 94.8902 86.1302C98.1854 82.4265 100 77.6604 100 72.7103C100 67.4276 97.9596 62.613 94.6268 59.011ZM77.3945 52.6659C77.5451 51.4519 77.6217 50.2243 77.6217 48.9972C77.6217 32.7511 64.4023 19.5337 48.1535 19.5337C43.3357 19.5337 38.5527 20.7247 34.3217 22.9776C33.6076 23.3579 33.3369 24.245 33.7172 24.9591C34.0977 25.6733 34.985 25.9438 35.6988 25.5636C39.5076 23.5353 43.8145 22.4632 48.1537 22.4632C62.7871 22.4632 74.6922 34.3661 74.6922 48.997C74.6922 50.4313 74.5754 51.8651 74.348 53.2722C65.8615 55.6606 59.6221 63.4702 59.6221 72.7103C59.6221 72.7851 59.624 72.8595 59.625 72.9341C58.2631 73.5903 56.8619 74.1229 55.4264 74.5317V59.5556C61.4709 56.8833 65.4641 50.8343 65.4641 44.1913C65.4641 38.6435 62.7123 33.4554 58.1047 30.3144C57.44 29.8599 55.4172 28.4767 53.7486 29.4378C52.1162 30.3778 52.2836 32.6378 52.3639 33.7237C52.3719 33.8306 52.3797 33.9185 52.3805 33.9765V43.1839C52.3805 45.5839 50.532 47.5968 48.1539 47.8105C45.7758 47.597 43.9273 45.5839 43.9273 43.1839V33.98C43.9283 33.9185 43.9361 33.8302 43.9441 33.7228C44.0254 32.637 44.1941 30.378 42.5635 29.438C40.8961 28.4771 38.8732 29.8601 38.2102 30.3134C33.601 33.4556 30.8492 38.6437 30.8492 44.1915C30.8492 50.8345 34.8422 56.8835 40.8869 59.5558V74.5245C29.7781 71.3561 21.6209 61.1116 21.6209 48.9972C21.6209 41.2782 24.9734 33.9575 30.8186 28.912C31.4311 28.3833 31.4988 27.4583 30.9703 26.846C30.4416 26.2333 29.5166 26.1653 28.9043 26.6942C22.4137 32.2968 18.691 40.4259 18.691 48.9972C18.691 65.2464 31.9078 78.4661 48.1537 78.4661C52.2613 78.4661 56.2014 77.646 59.8967 76.0312C60.4064 79.0985 61.6088 81.9349 63.3393 84.372C61.5109 85.1563 59.6197 85.8022 57.6947 86.2956C57.0469 86.4618 56.5936 87.0456 56.5936 87.7145V91.9888C56.5936 93.2233 55.5867 94.2278 54.349 94.2278H41.9641C40.7264 94.2278 39.7195 93.2233 39.7195 91.9888V87.7145C39.7195 87.0452 39.2658 86.461 38.6174 86.2952C35.075 85.3899 31.682 83.9831 28.5328 82.114C27.9572 81.7726 27.2229 81.8645 26.7494 82.3378L23.7266 85.3608C23.3043 85.7831 22.7406 86.0157 22.1389 86.0157C22.1381 86.0157 22.1373 86.0157 22.1365 86.0157C21.5367 86.0151 20.9758 85.7833 20.5551 85.3608L11.7945 76.6001C11.3736 76.1808 11.1418 75.6185 11.1418 75.0163C11.1418 74.4144 11.3736 73.8519 11.7965 73.4306L14.8195 70.4075C15.293 69.9341 15.3852 69.1999 15.0434 68.6241C13.1744 65.4749 11.7678 62.0819 10.8623 58.5394C10.6965 57.8909 10.1123 57.4372 9.44297 57.4372H5.16875C3.93418 57.4372 2.92969 56.4302 2.92969 55.1925V42.8071C2.92969 41.5694 3.93418 40.5624 5.16875 40.5624H9.44277C10.1121 40.5624 10.6963 40.1087 10.8621 39.4603C11.7676 35.9175 13.1742 32.5245 15.0432 29.3755C15.385 28.7997 15.2928 28.0655 14.8193 27.5921L11.7963 24.569C11.3734 24.1462 11.141 23.5815 11.1416 22.979C11.1422 22.3792 11.374 21.8183 11.7963 21.3976L20.5568 12.6368C20.9756 12.2165 21.5365 11.9847 22.1363 11.9841H22.1387C22.7402 11.9841 23.3041 12.2165 23.7264 12.639L26.7492 15.662C27.2225 16.1354 27.9568 16.2276 28.5326 15.8858C31.682 14.0167 35.075 12.6101 38.6172 11.7046C39.2656 11.5388 39.7193 10.9546 39.7193 10.2853V6.01104C39.7193 4.77646 40.7262 3.77197 41.9639 3.77197H54.3488C55.5865 3.77197 56.5934 4.77646 56.5934 6.01104V10.2853C56.5934 10.9546 57.0471 11.5388 57.6955 11.7046C61.2379 12.6099 64.6309 14.0167 67.7801 15.8858C68.3559 16.2274 69.09 16.1353 69.5635 15.662L72.5883 12.637C73.0076 12.2161 73.5701 11.9843 74.1721 11.9843C74.774 11.9843 75.3363 12.2161 75.7578 12.6392L84.5184 21.3999C84.9387 21.8187 85.1705 22.3796 85.1711 22.9794C85.1717 23.5819 84.9391 24.1468 84.5162 24.5694L81.4934 27.5925C81.0199 28.0659 80.9277 28.8001 81.2695 29.3759C83.1387 32.5253 84.5453 35.9185 85.4506 39.4606C85.6164 40.1091 86.2006 40.5628 86.8699 40.5628H91.144C92.3785 40.5628 93.383 41.5698 93.383 42.8075V55.1929C93.383 55.9089 93.0277 56.5769 92.468 56.994C89.0031 54.1979 84.5994 52.521 79.8109 52.521C78.9932 52.5208 78.1871 52.571 77.3945 52.6659ZM42.8602 57.1962C37.4281 55.1849 33.7787 49.9585 33.7787 44.1913C33.7787 39.6132 36.0521 35.33 39.8619 32.7329C40.4338 32.3421 40.8086 32.1698 41.0273 32.094C41.0727 32.3819 41.0713 32.854 41.0227 33.5044C41.0086 33.6917 40.9977 33.8397 40.9977 33.9765V43.1839C40.9977 47.1519 44.0973 50.4714 48.0543 50.7411C48.1207 50.7456 48.1873 50.7456 48.2537 50.7411C52.2107 50.4714 55.3104 47.1519 55.3104 43.1839V33.9765C55.3104 33.8405 55.2994 33.6937 55.2857 33.5075C55.2373 32.8544 55.2365 32.3808 55.2828 32.0931C55.5016 32.1685 55.8775 32.3405 56.4531 32.7341C60.2611 35.3302 62.5346 39.6134 62.5346 44.1915C62.5346 49.9587 58.885 55.1851 53.4531 57.1964C52.8785 57.4091 52.4969 57.9573 52.4969 58.57V75.1849C51.076 75.4169 49.6273 75.5364 48.1541 75.5364C46.6771 75.5364 45.2287 75.4132 43.8168 75.1798V58.5698C43.8162 57.9571 43.4348 57.4091 42.8602 57.1962Z" fill="#073E57"/>
<path d="M89.6734 63.7348C87.5484 61.9613 84.3759 62.2432 82.6019 64.3611L77.5027 70.4412L76.6603 69.727C74.55 67.9383 71.3761 68.201 69.5836 70.3147C67.7998 72.4272 68.063 75.6002 70.1701 77.3871L74.8617 81.3697C75.7884 82.1533 76.8943 82.5606 78.0832 82.5604C78.2318 82.5604 78.382 82.5541 78.5332 82.5412C79.9 82.4256 81.0851 81.8084 81.9572 80.7602L90.2949 70.8109C91.1562 69.7832 91.566 68.4807 91.4488 67.1432C91.3314 65.8061 90.7017 64.5963 89.6734 63.7348ZM88.0494 68.9293L79.7082 78.8824C79.33 79.3369 78.8781 79.5719 78.2855 79.6221C77.6939 79.6719 77.2072 79.5166 76.755 79.1344L72.0652 75.1531C71.1871 74.4084 71.0777 73.0858 71.8197 72.2072C72.2336 71.7193 72.8244 71.4682 73.4183 71.4682C73.8955 71.4682 74.3746 71.6303 74.7658 71.9617L76.7312 73.6283C77.0287 73.8805 77.4144 74.0029 77.8027 73.9707C78.1912 73.9377 78.5505 73.7512 78.8009 73.4524L84.8472 66.243C85.5867 65.3602 86.9097 65.2441 87.7941 65.9822C88.2199 66.3391 88.4814 66.8422 88.5302 67.3992C88.5793 67.9576 88.4086 68.501 88.0494 68.9293Z" fill="#073E57"/>
</svg>
