<svg width="96" height="86" viewBox="0 0 96 86" fill="none" xmlns="http://www.w3.org/2000/svg">
<path d="M76.0316 62.2939H71.0078C70.3865 62.2939 69.8828 61.7902 69.8828 61.1689V28.8282C69.8828 27.3639 71.0741 26.1726 72.5384 26.1726H74.5003C75.9647 26.1726 77.1559 27.3639 77.1559 28.8282V61.1315C77.1564 61.1439 77.1566 61.1564 77.1566 61.1689C77.1566 61.7902 76.6529 62.2939 76.0316 62.2939ZM72.1328 60.0439H74.9059V28.8282C74.9059 28.6045 74.724 28.4226 74.5003 28.4226H72.5384C72.3147 28.4226 72.1328 28.6046 72.1328 28.8282V60.0439Z" fill="#073E57"/>
<path d="M73.5197 69.4933C73.0413 69.4933 72.6151 69.1906 72.4575 68.7389L69.9456 61.5396C69.8256 61.1955 69.8796 60.8146 70.0906 60.5175C70.3016 60.2204 70.6435 60.0439 71.0078 60.0439H76.0316C76.396 60.0439 76.7378 60.2204 76.9488 60.5175C77.1598 60.8146 77.2138 61.1955 77.0938 61.5396L74.582 68.7389C74.4243 69.1906 73.9981 69.4933 73.5197 69.4933ZM72.5918 62.2939L73.5197 64.9532L74.4475 62.2939H72.5918Z" fill="#073E57"/>
<path d="M76.0316 32.6558H71.0078C70.3865 32.6558 69.8828 32.1521 69.8828 31.5308C69.8828 30.9094 70.3865 30.4058 71.0078 30.4058H76.0316C76.6529 30.4058 77.1566 30.9094 77.1566 31.5308C77.1566 32.1521 76.6529 32.6558 76.0316 32.6558Z" fill="#073E57"/>
<path d="M64.1444 38.6569H19.9688C19.3474 38.6569 18.8438 38.1532 18.8438 37.5319V24.0825C18.8438 23.4612 19.3474 22.9575 19.9688 22.9575H64.1444C64.7658 22.9575 65.2694 23.4612 65.2694 24.0825V37.5319C65.2694 38.1532 64.7658 38.6569 64.1444 38.6569ZM21.0938 36.4069H63.0194V25.2075H21.0938V36.4069Z" fill="#073E57"/>
<path d="M31.2238 58.9731H19.9688C19.3474 58.9731 18.8438 58.4694 18.8438 57.8481V44.3987C18.8438 43.7774 19.3474 43.2737 19.9688 43.2737H31.2238C31.8451 43.2737 32.3488 43.7774 32.3488 44.3987V57.8481C32.3488 58.4694 31.8451 58.9731 31.2238 58.9731ZM21.0938 56.7231H30.0988V45.5237H21.0938V56.7231Z" fill="#073E57"/>
<path d="M47.6847 58.9731H36.4297C35.8084 58.9731 35.3047 58.4694 35.3047 57.8481V44.3987C35.3047 43.7774 35.8084 43.2737 36.4297 43.2737H47.6847C48.306 43.2737 48.8097 43.7774 48.8097 44.3987V57.8481C48.8097 58.4694 48.306 58.9731 47.6847 58.9731ZM37.5547 56.7231H46.5597V45.5237H37.5547V56.7231Z" fill="#073E57"/>
<path d="M64.1437 58.9731H52.8887C52.2674 58.9731 51.7637 58.4694 51.7637 57.8481V44.3987C51.7637 43.7774 52.2674 43.2737 52.8887 43.2737H64.1436C64.7649 43.2737 65.2686 43.7774 65.2686 44.3987V57.8481C65.2687 58.4694 64.765 58.9731 64.1437 58.9731ZM54.0137 56.7231H63.0186V45.5237H54.0137V56.7231Z" fill="#073E57"/>
<path d="M64.1437 65.8406H52.8887C52.2674 65.8406 51.7637 65.3369 51.7637 64.7156C51.7637 64.0943 52.2674 63.5906 52.8887 63.5906H64.1437C64.765 63.5906 65.2687 64.0943 65.2687 64.7156C65.2687 65.3369 64.765 65.8406 64.1437 65.8406Z" fill="#073E57"/>
<path d="M31.2238 65.8406H19.9688C19.3474 65.8406 18.8438 65.3369 18.8438 64.7156C18.8438 64.0943 19.3474 63.5906 19.9688 63.5906H31.2238C31.8451 63.5906 32.3488 64.0943 32.3488 64.7156C32.3488 65.3369 31.8451 65.8406 31.2238 65.8406Z" fill="#073E57"/>
<path d="M47.6834 65.8406H36.4297C35.8084 65.8406 35.3047 65.3369 35.3047 64.7156C35.3047 64.0943 35.8084 63.5906 36.4297 63.5906H47.6834C48.3047 63.5906 48.8084 64.0943 48.8084 64.7156C48.8084 65.3369 48.3047 65.8406 47.6834 65.8406Z" fill="#073E57"/>
<path d="M47.6834 72.708H36.4297C35.8084 72.708 35.3047 72.2043 35.3047 71.583C35.3047 70.9617 35.8084 70.458 36.4297 70.458H47.6834C48.3047 70.458 48.8084 70.9617 48.8084 71.583C48.8084 72.2043 48.3047 72.708 47.6834 72.708Z" fill="#073E57"/>
<path d="M64.1437 72.708H52.8887C52.2674 72.708 51.7637 72.2043 51.7637 71.583C51.7637 70.9617 52.2674 70.458 52.8887 70.458H64.1437C64.765 70.458 65.2687 70.9617 65.2687 71.583C65.2687 72.2043 64.765 72.708 64.1437 72.708Z" fill="#073E57"/>
<path d="M31.2238 72.708H19.9688C19.3474 72.708 18.8438 72.2043 18.8438 71.583C18.8438 70.9617 19.3474 70.458 19.9688 70.458H31.2238C31.8451 70.458 32.3488 70.9617 32.3488 71.583C32.3488 72.2043 31.8451 72.708 31.2238 72.708Z" fill="#073E57"/>
<path d="M83.9892 12.7168H12.0117C11.3904 12.7168 10.8867 12.2131 10.8867 11.5918C10.8867 10.9705 11.3904 10.4668 12.0117 10.4668H83.9892C84.6105 10.4668 85.1142 10.9705 85.1142 11.5918C85.1142 12.2131 84.6106 12.7168 83.9892 12.7168Z" fill="#073E57"/>
<path d="M89.3613 85.1988H6.63875C4.96513 85.1988 3.39225 84.5471 2.20988 83.364C1.1005 82.2555 0.451063 80.7822 0.38175 79.2161C0.378125 79.1347 0.376125 79.0533 0.375625 78.9721C0.37525 78.9599 0.375 78.9475 0.375 78.9351V8.26877C0.375 4.15121 3.72494 0.80127 7.8425 0.80127H12.0056C12.6291 0.80127 13.1362 1.30846 13.1362 1.93189V73.7913C13.1362 74.4147 12.6291 74.9219 12.0056 74.9219H6.71375C5.59519 74.9219 4.51019 75.3853 3.73706 76.1935C2.97469 76.9903 2.58137 78.0284 2.6295 79.1166C2.67387 80.1192 3.08988 81.0627 3.80081 81.773C4.55875 82.5315 5.56644 82.9488 6.63875 82.9488H89.3613C90.4336 82.9488 91.4413 82.5315 92.1986 81.7736C92.9101 81.0626 93.3261 80.1192 93.3704 79.1166C93.4186 78.0285 93.0253 76.9903 92.2629 76.1935C91.4898 75.3853 90.4048 74.9219 89.2862 74.9219H83.9943C83.3709 74.9219 82.8637 74.4147 82.8637 73.7913V1.93189C82.8637 1.30846 83.3709 0.80127 83.9943 0.80127H88.1574C92.275 0.80127 95.6249 4.15121 95.6249 8.26877V78.935C95.6249 78.9474 95.6247 78.9598 95.6243 78.972C95.6237 79.0531 95.6217 79.1346 95.6181 79.216C95.5488 80.7822 94.8993 82.2555 93.7894 83.3645C92.6077 84.5471 91.0349 85.1988 89.3613 85.1988ZM7.8425 3.05127C4.96556 3.05127 2.625 5.39183 2.625 8.26877V74.158C3.76425 73.2068 5.21962 72.672 6.71375 72.672H10.8862V3.05127H7.8425ZM85.1137 72.6719H89.2862C90.7804 72.6719 92.2357 73.2068 93.375 74.158V8.26877C93.375 5.39183 91.0344 3.05127 88.1575 3.05127H85.1138V72.6719H85.1137Z" fill="#073E57"/>
</svg>
