<svg width="90" height="90" viewBox="0 0 90 90" fill="none" xmlns="http://www.w3.org/2000/svg">
<g opacity="0.9">
<path d="M56.3238 14.9999H47.1901C47.1901 11.6863 44.464 9 41.1011 9H39.5789C39.5789 4.02943 35.4896 0 30.4453 0C25.4009 0 21.3117 4.02943 21.3117 9H19.7895C16.4266 9 13.7004 11.6863 13.7004 14.9999H4.56681C2.04472 14.9999 0 17.0147 0 19.4999V85.5C0 87.9852 2.04472 90 4.56681 90H56.3239C58.846 90 60.8907 87.9854 60.8907 85.5V83.1451C60.8907 82.3166 60.2091 81.6451 59.3685 81.6451C58.528 81.6451 57.8463 82.3166 57.8463 83.1451V85.5C57.8463 86.3285 57.1649 86.9999 56.3241 86.9999H4.56645C3.7257 86.9999 3.04424 86.3285 3.04424 85.5V19.4999C3.04424 18.6715 3.72587 18 4.56645 18H13.7001V19.4999C13.7001 21.1569 15.0632 22.5 16.7447 22.5H44.1455C45.827 22.5 47.1901 21.1569 47.1901 19.4999V18H56.3238C57.1645 18 57.846 18.6717 57.846 19.4999V36.8849C57.846 37.7133 58.5274 38.3848 59.3682 38.3848C60.2089 38.3848 60.8904 37.7132 60.8904 36.8849V19.4999C60.8906 17.0147 58.8458 14.9999 56.3238 14.9999ZM44.1455 19.4999H16.7447V14.9999C16.7447 13.343 18.1078 11.9999 19.7893 11.9999H22.8339C23.6746 11.9999 24.3561 11.3282 24.3561 10.4999V9C24.3561 5.68635 27.0823 3.00006 30.4451 3.00006C33.808 3.00006 36.5341 5.68635 36.5341 9V10.4999C36.5341 11.3284 37.2158 11.9999 38.0563 11.9999H41.1009C42.7824 11.9999 44.1455 13.343 44.1455 14.9999V19.4999Z" fill="#073E57"/>
<path d="M30.4441 7.50024C29.6033 7.50024 28.9219 8.1719 28.9219 9.00019V13.5002C28.9219 14.3286 29.6035 15.0001 30.4441 15.0001C31.2847 15.0001 31.9663 14.3286 31.9663 13.5002V9.00019C31.9663 8.17173 31.2848 7.50024 30.4441 7.50024Z" fill="#073E57"/>
<path d="M48.7122 57.0002V30.0002C48.7122 27.515 46.6677 25.5002 44.1454 25.5002H16.7445C14.2225 25.5002 12.1777 27.515 12.1777 30.0002V57.0002C12.1777 59.4854 14.2225 61.5002 16.7445 61.5002H44.1454C46.6677 61.5002 48.7122 59.4854 48.7122 57.0002ZM35.1092 42.0752L32.2717 39.6002C31.1468 38.7911 29.6117 38.8231 28.5223 39.6782L25.8782 42.0003V28.5003H35.0209L35.1092 42.0752ZM45.6676 57.0002C45.6676 57.8287 44.986 58.5002 44.1454 58.5002H16.7445C15.9038 58.5002 15.2223 57.8287 15.2223 57.0002V30.0002C15.2223 29.1718 15.904 28.5003 16.7445 28.5003H22.8336V42.0003C22.8302 43.1374 23.4822 44.1777 24.5156 44.6838C25.589 45.2046 26.8718 45.0635 27.8021 44.3222L30.4448 42.0077L33.1849 44.4002C34.1075 45.0821 35.3418 45.1918 36.3731 44.6836C37.4045 44.1754 38.056 43.1366 38.056 42.0003V28.5003H44.1451C44.9858 28.5003 45.6673 29.172 45.6673 30.0002V57.0002H45.6676Z" fill="#073E57"/>
<path d="M50.4194 82.191C50.8354 82.394 51.2933 82.4998 51.7575 82.5C52.4331 82.4972 53.089 82.2753 53.6238 81.8684L62.185 75.2293C62.3652 75.0904 62.5109 74.9129 62.6112 74.7102L82.6855 34.2946L86.7027 26.2111L89.3773 20.8277C90.0896 19.3978 90.1959 17.7476 89.6725 16.2406C89.1491 14.7337 88.039 13.4935 86.5871 12.7937L83.847 11.4752C80.8258 10.0247 77.1832 11.2548 75.6999 14.2262L48.9352 68.1165C48.8363 68.3193 48.7844 68.541 48.783 68.766L48.7129 79.5226C48.7195 80.6597 49.3811 81.6945 50.4194 82.191ZM51.7575 79.5196L51.8108 71.1721L58.4008 74.3506L51.7575 79.5196ZM60.544 72.045L52.3405 68.088L71.0796 30.3645L79.2816 34.3215L60.544 72.045ZM80.6212 31.6261L72.4177 27.6706L75.0953 22.2812L83.2974 26.2366L80.6212 31.6261ZM78.4398 15.5445C79.179 14.0595 80.9985 13.4443 82.5073 14.1691L85.2474 15.4876C86.7571 16.216 87.3818 18.0122 86.6433 19.5001L84.6385 23.5501L76.4334 19.5872L78.4398 15.5445Z" fill="#073E57"/>
<path d="M10.656 82.5001H35.0123C35.853 82.5001 36.5345 81.8286 36.5345 81.0002C36.5345 80.1717 35.8528 79.5002 35.0123 79.5002H10.656C9.81524 79.5002 9.13379 80.1717 9.13379 81.0002C9.13379 81.8286 9.81524 82.5001 10.656 82.5001Z" fill="#073E57"/>
<path d="M44.1459 79.5002H41.1013C40.2606 79.5002 39.5791 80.1717 39.5791 81.0002C39.5791 81.8286 40.2607 82.5001 41.1013 82.5001H44.1459C44.9867 82.5001 45.6681 81.8286 45.6681 81.0002C45.6681 80.1717 44.9867 79.5002 44.1459 79.5002Z" fill="#073E57"/>
<path d="M44.1448 66.0002H16.7439C15.9031 66.0002 15.2217 66.6719 15.2217 67.5002C15.2217 68.3285 15.9033 69.0001 16.7439 69.0001H44.1448C44.9855 69.0001 45.667 68.3286 45.667 67.5002C45.667 66.6717 44.9855 66.0002 44.1448 66.0002Z" fill="#073E57"/>
<path d="M44.1448 72H16.7439C15.9031 72 15.2217 72.6715 15.2217 73.4999C15.2217 74.3284 15.9033 74.9999 16.7439 74.9999H44.1448C44.9855 74.9999 45.667 74.3284 45.667 73.4999C45.667 72.6715 44.9855 72 44.1448 72Z" fill="#073E57"/>
<path d="M10.656 69.0001C11.4967 69.0001 12.1782 68.3286 12.1782 67.5002C12.1782 66.6718 11.4967 66.0002 10.656 66.0002C9.81531 66.0002 9.13379 66.6718 9.13379 67.5002C9.13379 68.3286 9.81531 69.0001 10.656 69.0001Z" fill="#073E57"/>
<path d="M10.656 74.9999C11.4967 74.9999 12.1782 74.3283 12.1782 73.4999C12.1782 72.6715 11.4967 72 10.656 72C9.81531 72 9.13379 72.6715 9.13379 73.4999C9.13379 74.3283 9.81531 74.9999 10.656 74.9999Z" fill="#073E57"/>
</g>
</svg>
