<svg width="212" height="24" viewBox="0 0 212 24" fill="none" xmlns="http://www.w3.org/2000/svg">
<path d="M8.3328 18.288C6.7488 18.288 5.3648 17.928 4.1808 17.208C2.9968 16.488 2.0768 15.488 1.4208 14.208C0.764804 12.912 0.436804 11.408 0.436804 9.696C0.436804 7.968 0.772804 6.448 1.4448 5.136C2.1328 3.808 3.1008 2.776 4.3488 2.04C5.6128 1.288 7.1088 0.912 8.8368 0.912C10.8048 0.912 12.4368 1.384 13.7328 2.328C15.0288 3.272 15.8688 4.576 16.2528 6.24H12.8208C12.5648 5.456 12.1008 4.848 11.4288 4.416C10.7568 3.968 9.8928 3.744 8.8368 3.744C7.1568 3.744 5.8608 4.28 4.9488 5.352C4.0368 6.408 3.5808 7.864 3.5808 9.72C3.5808 11.576 4.0288 13.016 4.9248 14.04C5.8368 15.048 7.0688 15.552 8.6208 15.552C10.1408 15.552 11.2848 15.144 12.0528 14.328C12.8368 13.496 13.3088 12.408 13.4688 11.064H9.2208V8.76H16.5648V18H13.7328L13.4928 15.792C12.9488 16.592 12.2688 17.208 11.4528 17.64C10.6368 18.072 9.5968 18.288 8.3328 18.288ZM23.2906 18.288C22.2666 18.288 21.4266 18.128 20.7706 17.808C20.1146 17.472 19.6266 17.032 19.3066 16.488C18.9866 15.944 18.8266 15.344 18.8266 14.688C18.8266 13.584 19.2586 12.688 20.1226 12C20.9866 11.312 22.2826 10.968 24.0106 10.968H27.0346V10.68C27.0346 9.864 26.8026 9.264 26.3386 8.88C25.8746 8.496 25.2986 8.304 24.6106 8.304C23.9866 8.304 23.4426 8.456 22.9786 8.76C22.5146 9.048 22.2266 9.48 22.1146 10.056H19.1146C19.1946 9.192 19.4826 8.44 19.9786 7.8C20.4906 7.16 21.1466 6.672 21.9466 6.336C22.7466 5.984 23.6426 5.808 24.6346 5.808C26.3306 5.808 27.6666 6.232 28.6426 7.08C29.6186 7.928 30.1066 9.128 30.1066 10.68V18H27.4906L27.2026 16.08C26.8506 16.72 26.3546 17.248 25.7146 17.664C25.0906 18.08 24.2826 18.288 23.2906 18.288ZM23.9866 15.888C24.8666 15.888 25.5466 15.6 26.0266 15.024C26.5226 14.448 26.8346 13.736 26.9626 12.888H24.3466C23.5306 12.888 22.9466 13.04 22.5946 13.344C22.2426 13.632 22.0666 13.992 22.0666 14.424C22.0666 14.888 22.2426 15.248 22.5946 15.504C22.9466 15.76 23.4106 15.888 23.9866 15.888ZM37.6655 18.288C36.6095 18.288 35.6815 18.12 34.8815 17.784C34.0815 17.432 33.4415 16.952 32.9615 16.344C32.4815 15.736 32.1935 15.032 32.0975 14.232H35.1935C35.2895 14.696 35.5455 15.096 35.9615 15.432C36.3935 15.752 36.9455 15.912 37.6175 15.912C38.2895 15.912 38.7775 15.776 39.0815 15.504C39.4015 15.232 39.5615 14.92 39.5615 14.568C39.5615 14.056 39.3375 13.712 38.8895 13.536C38.4415 13.344 37.8175 13.16 37.0175 12.984C36.5055 12.872 35.9855 12.736 35.4575 12.576C34.9295 12.416 34.4415 12.216 33.9935 11.976C33.5615 11.72 33.2095 11.4 32.9375 11.016C32.6655 10.616 32.5295 10.128 32.5295 9.552C32.5295 8.496 32.9455 7.608 33.7775 6.888C34.6255 6.168 35.8095 5.808 37.3295 5.808C38.7375 5.808 39.8575 6.136 40.6895 6.792C41.5375 7.448 42.0415 8.352 42.2015 9.504H39.2975C39.1215 8.624 38.4575 8.184 37.3055 8.184C36.7295 8.184 36.2815 8.296 35.9615 8.52C35.6575 8.744 35.5055 9.024 35.5055 9.36C35.5055 9.712 35.7375 9.992 36.2015 10.2C36.6655 10.408 37.2815 10.6 38.0495 10.776C38.8815 10.968 39.6415 11.184 40.3295 11.424C41.0335 11.648 41.5935 11.992 42.0095 12.456C42.4255 12.904 42.6335 13.552 42.6335 14.4C42.6495 15.136 42.4575 15.8 42.0575 16.392C41.6575 16.984 41.0815 17.448 40.3295 17.784C39.5775 18.12 38.6895 18.288 37.6655 18.288ZM49.9912 18C48.7432 18 47.7432 17.696 46.9912 17.088C46.2392 16.48 45.8632 15.4 45.8632 13.848V8.664H43.8232V6.096H45.8632L46.2232 2.904H48.9352V6.096H52.1512V8.664H48.9352V13.872C48.9352 14.448 49.0552 14.848 49.2952 15.072C49.5512 15.28 49.9832 15.384 50.5912 15.384H52.0792V18H49.9912ZM54.4961 18V6.096H57.2321L57.5201 8.328C57.9521 7.56 58.5361 6.952 59.2721 6.504C60.0241 6.04 60.9041 5.808 61.9121 5.808V9.048H61.0481C60.3761 9.048 59.7761 9.152 59.2481 9.36C58.7201 9.568 58.3041 9.928 58.0001 10.44C57.7121 10.952 57.5681 11.664 57.5681 12.576V18H54.4961ZM69.2201 18.288C68.0681 18.288 67.0281 18.024 66.1001 17.496C65.1881 16.968 64.4601 16.24 63.9161 15.312C63.3881 14.368 63.1241 13.28 63.1241 12.048C63.1241 10.816 63.3961 9.736 63.9401 8.808C64.4841 7.864 65.2121 7.128 66.1241 6.6C67.0521 6.072 68.0921 5.808 69.2441 5.808C70.3801 5.808 71.4041 6.072 72.3161 6.6C73.2441 7.128 73.9721 7.864 74.5001 8.808C75.0441 9.736 75.3161 10.816 75.3161 12.048C75.3161 13.28 75.0441 14.368 74.5001 15.312C73.9721 16.24 73.2441 16.968 72.3161 17.496C71.3881 18.024 70.3561 18.288 69.2201 18.288ZM69.2201 15.624C70.0201 15.624 70.7161 15.328 71.3081 14.736C71.9001 14.128 72.1961 13.232 72.1961 12.048C72.1961 10.864 71.9001 9.976 71.3081 9.384C70.7161 8.776 70.0281 8.472 69.2441 8.472C68.4281 8.472 67.7241 8.776 67.1321 9.384C66.5561 9.976 66.2681 10.864 66.2681 12.048C66.2681 13.232 66.5561 14.128 67.1321 14.736C67.7241 15.328 68.4201 15.624 69.2201 15.624ZM83.2681 18V1.2H94.2361V3.672H86.3401V8.28H93.5161V10.68H86.3401V15.528H94.2361V18H83.2681ZM106.234 23.28V16.296C105.85 16.824 105.338 17.288 104.698 17.688C104.074 18.088 103.258 18.288 102.25 18.288C101.13 18.288 100.13 18.016 99.2505 17.472C98.3705 16.928 97.6745 16.184 97.1625 15.24C96.6505 14.296 96.3945 13.224 96.3945 12.024C96.3945 10.824 96.6505 9.76 97.1625 8.832C97.6745 7.888 98.3705 7.152 99.2505 6.624C100.13 6.08 101.13 5.808 102.25 5.808C103.146 5.808 103.93 5.976 104.602 6.312C105.274 6.648 105.818 7.12 106.234 7.728L106.57 6.096H109.306V23.28H106.234ZM102.898 15.6C103.89 15.6 104.698 15.272 105.322 14.616C105.962 13.944 106.282 13.088 106.282 12.048C106.282 11.008 105.962 10.16 105.322 9.504C104.698 8.832 103.89 8.496 102.898 8.496C101.922 8.496 101.114 8.824 100.474 9.48C99.8345 10.136 99.5145 10.984 99.5145 12.024C99.5145 13.064 99.8345 13.92 100.474 14.592C101.114 15.264 101.922 15.6 102.898 15.6ZM116.606 18.288C115.118 18.288 113.966 17.824 113.15 16.896C112.35 15.968 111.95 14.608 111.95 12.816V6.096H114.998V12.528C114.998 13.552 115.206 14.336 115.622 14.88C116.038 15.424 116.694 15.696 117.59 15.696C118.438 15.696 119.134 15.392 119.678 14.784C120.238 14.176 120.518 13.328 120.518 12.24V6.096H123.59V18H120.878L120.638 15.984C120.27 16.688 119.734 17.248 119.03 17.664C118.342 18.08 117.534 18.288 116.606 18.288ZM128.107 4.248C127.547 4.248 127.083 4.08 126.715 3.744C126.363 3.408 126.187 2.984 126.187 2.472C126.187 1.96 126.363 1.544 126.715 1.224C127.083 0.887999 127.547 0.719999 128.107 0.719999C128.667 0.719999 129.123 0.887999 129.475 1.224C129.843 1.544 130.027 1.96 130.027 2.472C130.027 2.984 129.843 3.408 129.475 3.744C129.123 4.08 128.667 4.248 128.107 4.248ZM126.571 18V6.096H129.643V18H126.571ZM132.557 23.28V6.096H135.293L135.629 7.8C136.013 7.272 136.517 6.808 137.141 6.408C137.781 6.008 138.605 5.808 139.613 5.808C140.733 5.808 141.733 6.08 142.613 6.624C143.493 7.168 144.189 7.912 144.701 8.856C145.213 9.8 145.469 10.872 145.469 12.072C145.469 13.272 145.213 14.344 144.701 15.288C144.189 16.216 143.493 16.952 142.613 17.496C141.733 18.024 140.733 18.288 139.613 18.288C138.717 18.288 137.933 18.12 137.261 17.784C136.589 17.448 136.045 16.976 135.629 16.368V23.28H132.557ZM138.965 15.6C139.941 15.6 140.749 15.272 141.389 14.616C142.029 13.96 142.349 13.112 142.349 12.072C142.349 11.032 142.029 10.176 141.389 9.504C140.749 8.832 139.941 8.496 138.965 8.496C137.973 8.496 137.157 8.832 136.517 9.504C135.893 10.16 135.581 11.008 135.581 12.048C135.581 13.088 135.893 13.944 136.517 14.616C137.157 15.272 137.973 15.6 138.965 15.6ZM159.154 18.288C157.922 18.288 156.834 18.08 155.89 17.664C154.946 17.232 154.202 16.624 153.658 15.84C153.114 15.04 152.834 14.072 152.818 12.936H156.058C156.09 13.72 156.37 14.384 156.898 14.928C157.442 15.456 158.186 15.72 159.13 15.72C159.946 15.72 160.594 15.528 161.074 15.144C161.554 14.744 161.794 14.216 161.794 13.56C161.794 12.872 161.578 12.336 161.146 11.952C160.73 11.568 160.17 11.256 159.466 11.016C158.762 10.776 158.01 10.52 157.21 10.248C155.914 9.8 154.922 9.224 154.234 8.52C153.562 7.816 153.226 6.88 153.226 5.712C153.21 4.72 153.442 3.872 153.922 3.168C154.418 2.448 155.09 1.896 155.938 1.512C156.786 1.112 157.762 0.912 158.866 0.912C159.986 0.912 160.97 1.112 161.818 1.512C162.682 1.912 163.354 2.472 163.834 3.192C164.33 3.912 164.594 4.768 164.626 5.76H161.338C161.322 5.168 161.09 4.648 160.642 4.2C160.21 3.736 159.602 3.504 158.818 3.504C158.146 3.488 157.578 3.656 157.114 4.008C156.666 4.344 156.442 4.84 156.442 5.496C156.442 6.056 156.618 6.504 156.97 6.84C157.322 7.16 157.802 7.432 158.41 7.656C159.018 7.88 159.714 8.12 160.498 8.376C161.33 8.664 162.09 9 162.778 9.384C163.466 9.768 164.018 10.28 164.434 10.92C164.85 11.544 165.058 12.352 165.058 13.344C165.058 14.224 164.834 15.04 164.386 15.792C163.938 16.544 163.274 17.152 162.394 17.616C161.514 18.064 160.434 18.288 159.154 18.288ZM172.678 18C171.43 18 170.43 17.696 169.678 17.088C168.926 16.48 168.55 15.4 168.55 13.848V8.664H166.51V6.096H168.55L168.91 2.904H171.622V6.096H174.838V8.664H171.622V13.872C171.622 14.448 171.742 14.848 171.982 15.072C172.238 15.28 172.67 15.384 173.278 15.384H174.766V18H172.678ZM182.59 18.288C181.438 18.288 180.398 18.024 179.47 17.496C178.558 16.968 177.83 16.24 177.286 15.312C176.758 14.368 176.494 13.28 176.494 12.048C176.494 10.816 176.766 9.736 177.31 8.808C177.854 7.864 178.582 7.128 179.494 6.6C180.422 6.072 181.462 5.808 182.614 5.808C183.75 5.808 184.774 6.072 185.686 6.6C186.614 7.128 187.342 7.864 187.87 8.808C188.414 9.736 188.686 10.816 188.686 12.048C188.686 13.28 188.414 14.368 187.87 15.312C187.342 16.24 186.614 16.968 185.686 17.496C184.758 18.024 183.726 18.288 182.59 18.288ZM182.59 15.624C183.39 15.624 184.086 15.328 184.678 14.736C185.27 14.128 185.566 13.232 185.566 12.048C185.566 10.864 185.27 9.976 184.678 9.384C184.086 8.776 183.398 8.472 182.614 8.472C181.798 8.472 181.094 8.776 180.502 9.384C179.926 9.976 179.638 10.864 179.638 12.048C179.638 13.232 179.926 14.128 180.502 14.736C181.094 15.328 181.79 15.624 182.59 15.624ZM191.14 18V6.096H193.876L194.164 8.328C194.596 7.56 195.18 6.952 195.916 6.504C196.668 6.04 197.548 5.808 198.556 5.808V9.048H197.692C197.02 9.048 196.42 9.152 195.892 9.36C195.364 9.568 194.948 9.928 194.644 10.44C194.356 10.952 194.212 11.664 194.212 12.576V18H191.14ZM205.936 18.288C204.736 18.288 203.672 18.032 202.744 17.52C201.816 17.008 201.088 16.288 200.56 15.36C200.032 14.432 199.768 13.36 199.768 12.144C199.768 10.912 200.024 9.816 200.536 8.856C201.064 7.896 201.784 7.152 202.696 6.624C203.624 6.08 204.712 5.808 205.96 5.808C207.128 5.808 208.16 6.064 209.056 6.576C209.952 7.088 210.648 7.792 211.144 8.688C211.656 9.568 211.912 10.552 211.912 11.64C211.912 11.816 211.904 12 211.888 12.192C211.888 12.384 211.88 12.584 211.864 12.792H202.816C202.88 13.72 203.2 14.448 203.776 14.976C204.368 15.504 205.08 15.768 205.912 15.768C206.536 15.768 207.056 15.632 207.472 15.36C207.904 15.072 208.224 14.704 208.432 14.256H211.552C211.328 15.008 210.952 15.696 210.424 16.32C209.912 16.928 209.272 17.408 208.504 17.76C207.752 18.112 206.896 18.288 205.936 18.288ZM205.96 8.304C205.208 8.304 204.544 8.52 203.968 8.952C203.392 9.368 203.024 10.008 202.864 10.872H208.792C208.744 10.088 208.456 9.464 207.928 9C207.4 8.536 206.744 8.304 205.96 8.304Z" fill="white"></path>
</svg>
